<svg width="640" height="384" viewBox="0 0 640 384" fill="none" xmlns="http://www.w3.org/2000/svg">
<path d="M512 128H480C471.156 128 464 135.156 464 144C464 152.844 471.156 160 480 160H512C564.938 160 608 203.062 608 256C608 308.938 564.938 352 512 352H336C283.062 352 240 308.938 240 256C240 203.062 283.062 160 336 160H352C360.844 160 368 152.844 368 144C368 135.156 360.844 128 352 128H336C265.406 128 208 185.422 208 256C208 326.578 265.406 384 336 384H512C582.594 384 640 326.578 640 256C640 185.422 582.594 128 512 128ZM160 224H128C75.062 224 32 180.938 32 128C32 75.062 75.062 32 128 32H304C356.938 32 400 75.062 400 128C400 180.938 356.938 224 304 224H288C279.156 224 272 231.156 272 240C272 248.844 279.156 256 288 256H304C374.594 256 432 198.578 432 128C432 57.422 374.594 0 304 0H128C57.406 0 0 57.422 0 128C0 198.578 57.406 256 128 256H160C168.844 256 176 248.844 176 240C176 231.156 168.844 224 160 224Z" fill="black"/>
</svg>
