<svg width="224" height="225" viewBox="0 0 224 225" fill="none" xmlns="http://www.w3.org/2000/svg">
<path d="M71.7403 48.7501C84.9312 48.7501 95.6332 37.9986 95.6332 24.7471C95.6332 11.4956 84.9312 0.744629 71.7403 0.744629C58.5495 0.744629 47.8475 11.4956 47.8475 24.7471C47.8475 37.9986 58.5495 48.7501 71.7403 48.7501ZM47.8475 80.7536C47.8475 67.5021 37.1455 56.7506 23.9546 56.7506C10.7638 56.7506 0.0617676 67.5021 0.0617676 80.7536C0.0617676 94.0051 10.7638 104.756 23.9546 104.756C37.1455 104.756 47.8475 94.0051 47.8475 80.7536ZM151.383 48.7501C164.574 48.7501 175.276 37.9986 175.276 24.7471C175.276 11.4956 164.574 0.744629 151.383 0.744629C138.192 0.744629 127.49 11.4956 127.49 24.7471C127.49 37.9986 138.192 48.7501 151.383 48.7501ZM199.169 56.7506C185.978 56.7506 175.276 67.5021 175.276 80.7536C175.276 94.0051 185.978 104.756 199.169 104.756C212.36 104.756 223.062 94.0051 223.062 80.7536C223.062 67.5021 212.36 56.7506 199.169 56.7506ZM182.867 135.135C169.801 127.759 159.41 104.444 149.454 86.2541C141.615 71.8776 126.619 64.7516 111.562 64.7516C96.5043 64.7516 81.509 71.8776 73.6692 86.2541C63.5272 104.694 53.6963 127.509 40.1943 135.135C25.759 143.323 15.9903 158.825 15.9903 176.764C15.9903 203.267 37.3944 224.707 63.7761 224.707C89.5355 225.645 99.7398 208.768 111.562 208.768C123.384 208.768 133.588 225.645 159.347 224.707C185.729 224.707 207.133 203.267 207.133 176.764C207.133 158.825 197.365 143.323 182.867 135.135Z" fill="black"/>
</svg>
