<svg width="97" height="99" viewBox="0 0 97 99" fill="none" xmlns="http://www.w3.org/2000/svg">
<g id="logo">
<path id="ZURU" d="M1.216 51.728L14.272 19.6H1.856V13.2H21.824V19.472L8.768 51.6H21.824V58H1.216V51.728ZM34.7715 58.64C31.3582 58.64 28.7555 57.68 26.9635 55.76C25.1715 53.7973 24.2755 51.0027 24.2755 47.376V13.2H31.3155V47.888C31.3155 49.424 31.6142 50.5333 32.2115 51.216C32.8515 51.8987 33.7475 52.24 34.8995 52.24C36.0515 52.24 36.9262 51.8987 37.5235 51.216C38.1635 50.5333 38.4835 49.424 38.4835 47.888V13.2H45.2675V47.376C45.2675 51.0027 44.3715 53.7973 42.5795 55.76C40.7875 57.68 38.1848 58.64 34.7715 58.64ZM49.0015 13.2H59.4335C63.0602 13.2 65.7055 14.0533 67.3695 15.76C69.0335 17.424 69.8655 20.0053 69.8655 23.504V26.256C69.8655 30.9067 68.3295 33.8507 65.2575 35.088V35.216C66.9642 35.728 68.1588 36.7733 68.8415 38.352C69.5668 39.9307 69.9295 42.0427 69.9295 44.688V52.56C69.9295 53.84 69.9722 54.8853 70.0575 55.696C70.1428 56.464 70.3562 57.232 70.6975 58H63.5295C63.2735 57.2747 63.1028 56.592 63.0175 55.952C62.9322 55.312 62.8895 54.16 62.8895 52.496V44.304C62.8895 42.256 62.5482 40.8267 61.8655 40.016C61.2255 39.2053 60.0948 38.8 58.4735 38.8H56.0415V58H49.0015V13.2ZM58.6015 32.4C60.0095 32.4 61.0548 32.0373 61.7375 31.312C62.4628 30.5867 62.8255 29.3707 62.8255 27.664V24.208C62.8255 22.5867 62.5268 21.4133 61.9295 20.688C61.3748 19.9627 60.4788 19.6 59.2415 19.6H56.0415V32.4H58.6015ZM83.774 58.64C80.3607 58.64 77.758 57.68 75.966 55.76C74.174 53.7973 73.278 51.0027 73.278 47.376V13.2H80.318V47.888C80.318 49.424 80.6167 50.5333 81.214 51.216C81.854 51.8987 82.75 52.24 83.902 52.24C85.054 52.24 85.9287 51.8987 86.526 51.216C87.166 50.5333 87.486 49.424 87.486 47.888V13.2H94.27V47.376C94.27 51.0027 93.374 53.7973 91.582 55.76C89.79 57.68 87.1873 58.64 83.774 58.64Z" fill="white"/>
<path id="PANGO" d="M1.6 61V89H3.44V77.48H6.92C11.36 77.48 13.4 75.28 13.4 70.84V67.8C13.4 63.72 11.72 61 7.4 61H1.6ZM3.44 75.8V62.68H7.4C10.52 62.68 11.56 64.64 11.56 67.68V70.96C11.56 74.36 10.16 75.8 6.92 75.8H3.44ZM31.5406 82.8L32.9406 89H34.7806L28.5406 60.96H25.8606L19.7406 89H21.4206L22.8206 82.8H31.5406ZM27.1406 63.08L31.2606 81.2H23.1006L27.1406 63.08ZM43.6425 64.04L52.4025 89H54.4425V61H52.7625V84.64L44.3625 61H41.9625V89H43.6425V64.04ZM67.9075 60.76C63.6275 60.76 61.8675 63.8 61.8675 67.84V82.16C61.8675 86.2 63.6275 89.24 67.9075 89.24C72.1875 89.24 73.9475 86.2 73.9475 82.16V74.56H68.4675V76.24H72.1875V82.28C72.1875 85.28 71.0275 87.52 67.9475 87.52C64.8675 87.52 63.7075 85.28 63.7075 82.28V67.72C63.7075 64.72 64.8675 62.44 67.9475 62.44C71.0275 62.44 72.1875 64.72 72.1875 67.72V69.92H73.9475V67.84C73.9475 63.8 72.1875 60.76 67.9075 60.76ZM81.3066 82.16C81.3066 86.24 83.1866 89.24 87.4266 89.24C91.7466 89.24 93.6266 86.24 93.6266 82.16V67.84C93.6266 63.76 91.7466 60.76 87.4266 60.76C83.1866 60.76 81.3066 63.76 81.3066 67.84V82.16ZM83.1466 67.72C83.1466 64.68 84.3466 62.44 87.4266 62.44C90.5466 62.44 91.7866 64.68 91.7866 67.72V82.28C91.7866 85.32 90.5466 87.56 87.4266 87.56C84.3466 87.56 83.1466 85.32 83.1466 82.28V67.72Z" fill="white"/>
</g>
</svg>
