<svg width="512" height="512" viewBox="0 0 512 512" fill="none" xmlns="http://www.w3.org/2000/svg">
<path d="M496 256C496 388.344 388.344 496 256 496C123.656 496 16 388.344 16 256C16 150.594 86.5 55.969 187.438 25.938C196.062 23.438 204.844 28.281 207.344 36.719C209.844 45.188 205.031 54.094 196.562 56.625C109.094 82.656 48 164.625 48 256C48 370.688 141.312 464 256 464C370.688 464 464 370.688 464 256C464 164.625 402.906 82.656 315.438 56.625C306.969 54.094 302.156 45.187 304.656 36.719C307.156 28.281 316.031 23.469 324.562 25.937C425.5 55.969 496 150.594 496 256Z" fill="black"/>
<path d="M189.078 220.091C200.502 213.496 204.394 198.834 197.769 187.358C191.143 175.881 176.499 171.922 165.075 178.517C153.652 185.113 149.759 199.774 156.385 211.25C163.011 222.726 177.655 226.687 189.078 220.091ZM184.388 259.753C177.762 248.277 163.118 244.317 151.695 250.913C140.271 257.508 136.379 272.17 143.005 283.646C149.63 295.122 164.274 299.082 175.698 292.487C187.121 285.891 191.014 271.23 184.388 259.753ZM258.051 180.27C269.475 173.674 273.367 159.012 266.741 147.536C260.116 136.06 245.472 132.1 234.048 138.696C222.625 145.291 218.732 159.953 225.358 171.429C231.983 182.905 246.627 186.865 258.051 180.27ZM303.435 163.305C292.011 169.901 288.119 184.563 294.745 196.039C301.37 207.515 316.014 211.475 327.438 204.879C338.861 198.284 342.754 183.622 336.128 172.146C329.502 160.67 314.858 156.71 303.435 163.305ZM328.509 239.339C313.505 239.485 292.849 224.488 275.133 213.714C261.155 205.183 244.605 206.509 231.565 214.038C218.525 221.567 209.102 235.236 209.501 251.606C209.937 272.646 212.831 297.32 204.951 310.675C196.544 324.984 195.835 343.293 204.804 358.83C218.056 381.782 247.312 389.647 270.159 376.457C292.937 364.389 293.335 344.671 303.573 338.76C313.811 332.849 331.087 342.362 352.927 328.671C375.774 315.48 383.59 286.21 370.339 263.258C361.369 247.722 345.158 239.182 328.509 239.339Z" fill="black"/>
</svg>
