<svg width="111" height="111" viewBox="0 0 111 111" fill="none" xmlns="http://www.w3.org/2000/svg">
<path id="logo-mask" fill-rule="evenodd" clip-rule="evenodd" d="M0 0H111V111H0V0ZM7.112 8.2V14.6H19.848L6.47198 46.728V53H27.08V46.6H13.704L27.08 14.472V8.2H7.112ZM30.9275 8.2V42.312C30.9275 49.48 34.5115 53.576 41.4235 53.576C48.3355 53.576 51.9195 49.48 51.9195 42.312V8.2H45.2635V42.76C45.2635 45.96 43.8555 47.112 41.6155 47.112C39.3755 47.112 37.9675 45.96 37.9675 42.76V8.2H30.9275ZM78.6355 53C77.9315 51.336 77.8675 49.736 77.8675 47.56V40.648C77.8675 35.976 76.7155 32.584 73.1955 31.112C76.3315 29.64 77.8035 26.632 77.8035 22.024V18.504C77.8035 11.592 74.6675 8.2 67.3715 8.2H56.7475V53H63.7875V34.76H66.2195C69.4195 34.76 70.8275 36.296 70.8275 40.456V47.496C70.8275 51.0819 71.0749 51.8232 71.448 52.9415L71.4675 53H78.6355ZM67.1795 14.6C69.6755 14.6 70.7635 16.008 70.7635 19.208V23.624C70.7635 27.208 69.1635 28.36 66.5395 28.36H63.7875V14.6H67.1795ZM82.1775 8.2V42.312C82.1775 49.48 85.7615 53.576 92.6735 53.576C99.5855 53.576 103.169 49.48 103.169 42.312V8.2H96.5135V42.76C96.5135 45.96 95.1055 47.112 92.8655 47.112C90.6255 47.112 89.2175 45.96 89.2175 42.76V8.2H82.1775ZM6.60001 96V68H12.4C16.72 68 18.4 70.72 18.4 74.8V77.84C18.4 82.28 16.36 84.48 11.92 84.48H8.44V96H6.60001ZM8.44 69.68V82.8H11.92C15.16 82.8 16.56 81.36 16.56 77.96V74.68C16.56 71.64 15.52 69.68 12.4 69.68H8.44ZM39.3406 96L37.9406 89.8H29.2206L27.8206 96H26.1406L32.2606 67.96H34.9406L41.1806 96H39.3406ZM37.6606 88.2L33.5406 70.08L29.5006 88.2H37.6606ZM60.2025 96L51.4425 71.04V96H49.7625V68H52.1625L60.5625 91.64V68H62.2425V96H60.2025ZM71.0675 74.84C71.0675 70.8 72.8275 67.76 77.1075 67.76C81.3875 67.76 83.1475 70.8 83.1475 74.84V76.92H81.3875V74.72C81.3875 71.72 80.2275 69.44 77.1475 69.44C74.0675 69.44 72.9075 71.72 72.9075 74.72V89.28C72.9075 92.28 74.0675 94.52 77.1475 94.52C80.2275 94.52 81.3875 92.28 81.3875 89.28V83.24H77.6675V81.56H83.1475V89.16C83.1475 93.2 81.3875 96.24 77.1075 96.24C72.8275 96.24 71.0675 93.2 71.0675 89.16V74.84ZM98.0266 96.24C93.7866 96.24 91.9066 93.24 91.9066 89.16V74.84C91.9066 70.76 93.7866 67.76 98.0266 67.76C102.347 67.76 104.227 70.76 104.227 74.84V89.16C104.227 93.24 102.347 96.24 98.0266 96.24ZM98.0266 69.44C94.9466 69.44 93.7466 71.68 93.7466 74.72V89.28C93.7466 92.32 94.9466 94.56 98.0266 94.56C101.147 94.56 102.387 92.32 102.387 89.28V74.72C102.387 71.68 101.147 69.44 98.0266 69.44Z" fill="white"/>
</svg>
